<svg width="27" height="24" viewBox="0 0 27 24" fill="none" xmlns="http://www.w3.org/2000/svg">
<path d="M6.58752 6.83965C6.32604 6.71449 6.00979 6.72075 5.75484 6.85611C5.49988 6.99148 5.34375 7.23602 5.34375 7.5V17C5.34375 17.4142 5.72151 17.75 6.1875 17.75C6.65349 17.75 7.03125 17.4142 7.03125 17V8.75566L13.0999 11.6603C13.3497 11.7799 13.6503 11.7799 13.9001 11.6603L19.9688 8.75566V17C19.9688 17.4142 20.3465 17.75 20.8125 17.75C21.2785 17.75 21.6562 17.4142 21.6562 17V7.5C21.6562 7.23602 21.5001 6.99148 21.2452 6.85611C20.9902 6.72075 20.674 6.71449 20.4124 6.83965L13.5 10.1482L6.58752 6.83965Z" fill="#272728"/>
<path fill-rule="evenodd" clip-rule="evenodd" d="M19.4743 3.7218C15.4993 3.40588 11.5005 3.40588 7.52544 3.7218L5.81842 3.85747C3.98736 4.003 2.5079 5.24642 2.24196 6.86334C1.68171 10.2697 1.68171 13.7303 2.24196 17.1366C2.5079 18.7535 3.98736 19.9969 5.81842 20.1425L7.52544 20.2781C11.5005 20.5941 15.4993 20.5941 19.4743 20.2781L21.1812 20.1425C23.0124 19.9969 24.4918 18.7535 24.7577 17.1366C25.318 13.7303 25.318 10.2697 24.7577 6.86334C24.4918 5.24642 23.0124 4.003 21.1812 3.85747L19.4743 3.7218ZM7.67571 5.21584C11.5508 4.90787 15.4489 4.90787 19.324 5.21584L21.031 5.35151C22.0841 5.43521 22.935 6.15036 23.088 7.08033C23.6246 10.3427 23.6246 13.6572 23.088 16.9196C22.935 17.8496 22.0841 18.5647 21.031 18.6484L19.324 18.7841C15.4489 19.0921 11.5508 19.0921 7.67571 18.7841L5.96871 18.6484C4.91557 18.5647 4.06467 17.8496 3.91171 16.9196C3.37513 13.6572 3.37513 10.3427 3.91171 7.08033C4.06467 6.15036 4.91557 5.43521 5.96871 5.35151L7.67571 5.21584Z" fill="#272728"/>
</svg>
