<svg width="24" height="15" viewBox="0 0 24 15" fill="none" xmlns="http://www.w3.org/2000/svg">
<path d="M23.4569 1.03122C23.1869 1.92278 22.8228 2.69882 22.3667 3.40346L22.3857 3.37195C21.9377 4.15605 21.4026 5.06196 20.7805 6.08968C20.247 6.90108 19.9647 7.32113 19.9333 7.34983C19.7953 7.5315 19.6993 7.75413 19.6663 7.99881L19.6653 8.00616C19.6923 8.22879 19.7903 8.42306 19.9333 8.56798L20.3334 9.03633C22.4737 11.3459 23.6776 12.9379 23.945 13.8123C23.98 13.9089 24 14.0202 24 14.1368C24 14.3405 23.938 14.5285 23.833 14.6829L23.835 14.6797C23.6589 14.8698 23.4129 14.9874 23.1409 14.9874C23.1108 14.9874 23.0798 14.9863 23.0508 14.9832H23.0548H20.4234C20.4224 14.9832 20.4204 14.9832 20.4184 14.9832C20.0813 14.9832 19.7713 14.8593 19.5283 14.6535L19.5313 14.6556C19.1772 14.35 18.8621 14.0192 18.5801 13.66L18.5711 13.6474C18.1103 13.1007 17.7016 12.6404 17.3449 12.2665C16.1567 11.0806 15.2799 10.4876 14.7145 10.4876C14.6934 10.4855 14.6694 10.4845 14.6444 10.4845C14.4794 10.4845 14.3254 10.538 14.1984 10.6294L14.2014 10.6273C14.0973 10.7638 14.0343 10.9402 14.0343 11.1303C14.0343 11.1681 14.0363 11.2038 14.0413 11.2405V11.2363C14.0143 11.5661 13.9983 11.9494 13.9983 12.3369C13.9983 12.4618 14.0003 12.5858 14.0033 12.7097V12.6918V13.9089C14.0133 13.9583 14.0193 14.015 14.0193 14.0727C14.0193 14.3269 13.9093 14.5537 13.7373 14.7039L13.7363 14.7049C13.3492 14.8908 12.8971 15 12.4201 15C12.3181 15 12.218 14.9947 12.119 14.9853L12.132 14.9863C10.5578 14.9548 9.09752 14.4707 7.85631 13.6548L7.89132 13.6758C6.38006 12.7118 5.12785 11.4569 4.1737 9.9741L4.14669 9.92999C3.24054 8.66774 2.3954 7.24167 1.67528 5.73789L1.60527 5.57617C1.1842 4.73397 0.748125 3.69854 0.372062 2.63372L0.312052 2.43944C0.159027 1.96059 0.048008 1.40402 0.00200033 0.827499L0 0.801246C0 0.270582 0.297383 0.00525075 0.892149 0.00525075H3.52259C3.54659 0.0031505 3.5746 0.0021001 3.6036 0.0021001C3.85164 0.0021001 4.08068 0.091361 4.26171 0.241529L4.25971 0.239429C4.45974 0.469406 4.60777 0.75189 4.68078 1.06693L4.68378 1.07953C5.16786 2.51505 5.68095 3.7206 6.27104 4.87573L6.20403 4.73187C6.68611 5.75049 7.2192 6.62734 7.8273 7.43699L7.8043 7.40444C8.33772 8.09192 8.75379 8.43566 9.05251 8.43566C9.06151 8.43671 9.07251 8.43671 9.08451 8.43671C9.23254 8.43671 9.36156 8.3527 9.43157 8.22669L9.43257 8.22459C9.50658 8.02506 9.54959 7.79298 9.54959 7.55146C9.54959 7.5 9.54759 7.44854 9.54359 7.39814V7.40444V3.331C9.52259 2.85109 9.41057 2.40269 9.22354 2.00049L9.23154 2.02044C9.10752 1.74321 8.95849 1.50378 8.78146 1.2906L8.78446 1.29481C8.62044 1.12258 8.50842 0.896807 8.47341 0.644777L8.47241 0.638476C8.47241 0.459955 8.55042 0.299286 8.67244 0.194273L8.67344 0.193223C8.79447 0.0766592 8.95649 0.0063008 9.13352 0.0063008H9.14152H13.2882C13.3102 0.00315042 13.3352 0.0021001 13.3612 0.0021001C13.5563 0.0021001 13.7313 0.0945115 13.8473 0.239429L13.8483 0.240479C13.9513 0.437903 14.0123 0.674181 14.0123 0.924111C14.0123 0.964016 14.0103 1.00287 14.0073 1.04173V1.03647V6.46878C14.0053 6.49398 14.0043 6.52338 14.0043 6.55279C14.0043 6.74601 14.0553 6.92768 14.1434 7.08205L14.1414 7.07785C14.2144 7.19126 14.3364 7.26477 14.4744 7.26477H14.4754C14.6514 7.25217 14.8115 7.19126 14.9465 7.09465L14.9435 7.09675C15.2155 6.90038 15.4496 6.6767 15.6526 6.42362L15.6566 6.41837C16.2637 5.69798 16.8238 4.90199 17.3119 4.05559L17.3509 3.98208C17.6949 3.38351 18.067 2.64632 18.4041 1.88918L18.4661 1.73481L18.9122 0.798095C19.0672 0.329739 19.4832 0 19.9723 0C19.9913 0 20.0103 -7.61622e-08 20.0293 0.00105005H20.0263H22.6578C23.3686 0.00105005 23.6353 0.344441 23.4579 1.03122H23.4569Z" fill="#272728"/>
</svg>
