<svg width="110" height="110" viewBox="0 0 110 110" fill="none" xmlns="http://www.w3.org/2000/svg">
<circle opacity="0.1" cx="55" cy="55" r="54.5" stroke="white"/>
<path d="M10 55C10 30.1472 30.1472 10 55 10C79.8528 10 100 30.1472 100 55C100 79.8528 79.8528 100 55 100C30.1472 100 10 79.8528 10 55Z" fill="white"/>
<path d="M68.0752 52.4692C71.7088 52.4692 74.6544 49.4463 74.6544 45.7173C74.6544 41.9883 71.7088 38.9653 68.0752 38.9653C64.4416 38.9653 61.496 41.9883 61.496 45.7173C61.496 49.4463 64.4416 52.4692 68.0752 52.4692Z" fill="black"/>
<path d="M45.014 57.5918C36.722 57.5918 30 64.4903 30 73.0001H60.0281C60.0281 64.4903 53.3061 57.5918 45.014 57.5918Z" fill="black"/>
<path d="M68.0752 57.0586C64.9767 57.0586 62.1559 58.2729 60.0363 60.2616C62.1547 62.8832 63.5648 65.9779 64.167 69.2965H80C80 62.5376 74.661 57.0586 68.0752 57.0586Z" fill="black"/>
<path d="M45.014 53.0024C49.589 53.0024 53.2977 49.1963 53.2977 44.5012C53.2977 39.8061 49.589 36 45.014 36C40.4391 36 36.7303 39.8061 36.7303 44.5012C36.7303 49.1963 40.4391 53.0024 45.014 53.0024Z" fill="black"/>
</svg>
