<svg width="31" height="31" viewBox="0 0 31 31" fill="none" xmlns="http://www.w3.org/2000/svg">
<path d="M4.5364 19.3749H10.5553C10.4101 18.1509 10.3333 16.849 10.3333 15.4999C10.3333 14.1508 10.4101 12.849 10.5553 11.6249H4.5364C4.10802 12.8369 3.87492 14.1412 3.87492 15.4999C3.87492 16.8586 4.10802 18.1629 4.5364 19.3749ZM5.0833 20.6666C6.62088 23.7606 9.49635 26.0724 12.9528 26.845C11.9464 25.4752 11.1756 23.2979 10.7385 20.6666H5.0833ZM26.4634 19.3749C26.8918 18.1629 27.1249 16.8586 27.1249 15.4999C27.1249 14.1412 26.8918 12.8369 26.4634 11.6249H20.4445C20.5897 12.849 20.6666 14.1508 20.6666 15.4999C20.6666 16.849 20.5897 18.1509 20.4445 19.3749H26.4634ZM25.9165 20.6666H20.2613C19.8242 23.2979 19.0534 25.4752 18.0471 26.845C21.5035 26.0724 24.379 23.7606 25.9165 20.6666ZM11.8631 19.3749H19.1367C19.2897 18.1638 19.3749 16.8598 19.3749 15.4999C19.3749 14.14 19.2897 12.836 19.1367 11.6249H11.8631C11.7101 12.836 11.6249 14.14 11.6249 15.4999C11.6249 16.8598 11.7101 18.1638 11.8631 19.3749ZM12.0576 20.6666C12.7321 24.5 14.1024 27.1249 15.4999 27.1249C16.8974 27.1249 18.2677 24.5 18.9422 20.6666H12.0576ZM5.0833 10.3333H10.7385C11.1756 7.70195 11.9464 5.52467 12.9528 4.15483C9.49635 4.92747 6.62088 7.23927 5.0833 10.3333ZM25.9165 10.3333C24.379 7.23927 21.5035 4.92747 18.0471 4.15483C19.0534 5.52467 19.8242 7.70195 20.2613 10.3333H25.9165ZM12.0576 10.3333H18.9422C18.2677 6.49981 16.8974 3.87492 15.4999 3.87492C14.1024 3.87492 12.7321 6.49981 12.0576 10.3333ZM15.4999 28.4166C8.36624 28.4166 2.58325 22.6336 2.58325 15.4999C2.58325 8.36624 8.36624 2.58325 15.4999 2.58325C22.6336 2.58325 28.4166 8.36624 28.4166 15.4999C28.4166 22.6336 22.6336 28.4166 15.4999 28.4166Z" fill="url(#paint0_linear_63_747)"/>
<defs>
<linearGradient id="paint0_linear_63_747" x1="19.9999" y1="25" x2="9.49988" y2="5" gradientUnits="userSpaceOnUse">
<stop stop-color="#5E096C"/>
<stop offset="1" stop-color="#951EA9"/>
</linearGradient>
</defs>
</svg>
