<svg width="110" height="110" viewBox="0 0 110 110" fill="none" xmlns="http://www.w3.org/2000/svg">
<circle opacity="0.1" cx="55" cy="55" r="54.5" stroke="white"/>
<circle cx="55" cy="55" r="45" fill="white"/>
<path d="M41.9551 45.1093C41.4806 44.8694 40.9067 44.8814 40.444 45.1409C39.9813 45.4003 39.6979 45.869 39.6979 46.375V64.5834C39.6979 65.3773 40.3835 66.0209 41.2292 66.0209C42.0749 66.0209 42.7604 65.3773 42.7604 64.5834V48.7817L53.774 54.349C54.2273 54.5782 54.7728 54.5782 55.226 54.349L66.2396 48.7817V64.5834C66.2396 65.3773 66.9252 66.0209 67.7709 66.0209C68.6165 66.0209 69.3021 65.3773 69.3021 64.5834V46.375C69.3021 45.869 69.0187 45.4003 68.5561 45.1409C68.0934 44.8814 67.5195 44.8694 67.0448 45.1093L54.5 51.4508L41.9551 45.1093Z" fill="black"/>
<path fill-rule="evenodd" clip-rule="evenodd" d="M65.3425 39.1333C58.1287 38.5278 50.8716 38.5278 43.6576 39.1333L40.5597 39.3934C37.2366 39.6723 34.5517 42.0555 34.0691 45.1546C33.0523 51.6835 33.0523 58.3163 34.0691 64.845C34.5517 67.9441 37.2366 70.3273 40.5597 70.6063L43.6576 70.8662C50.8716 71.4719 58.1287 71.4719 65.3425 70.8662L68.4403 70.6063C71.7635 70.3273 74.4483 67.9441 74.931 64.845C75.9477 58.3163 75.9477 51.6835 74.931 45.1546C74.4483 42.0555 71.7635 39.6723 68.4403 39.3934L65.3425 39.1333ZM43.9303 41.9969C50.9628 41.4066 58.0372 41.4066 65.0697 41.9969L68.1678 42.2569C70.079 42.4174 71.6231 43.7881 71.9007 45.5705C72.8746 51.8234 72.8746 58.1762 71.9007 64.4291C71.6231 66.2116 70.079 67.5822 68.1678 67.7427L65.0697 68.0027C58.0372 68.5931 50.9628 68.5931 43.9303 68.0027L40.8324 67.7427C38.9212 67.5822 37.3769 66.2116 37.0994 64.4291C36.1256 58.1762 36.1256 51.8234 37.0994 45.5705C37.3769 43.7881 38.9212 42.4174 40.8324 42.2569L43.9303 41.9969Z" fill="black"/>
</svg>
