<svg width="35" height="41" viewBox="0 0 35 41" fill="none" xmlns="http://www.w3.org/2000/svg">
<g filter="url(#filter0_d_51_278)">
<mask id="path-1-outside-1_51_278" maskUnits="userSpaceOnUse" x="2.99988" y="2" width="29" height="35" fill="black">
<rect fill="white" x="2.99988" y="2" width="29" height="35"/>
<path fill-rule="evenodd" clip-rule="evenodd" d="M11.4752 22.4118L9.7472 19.7821C8.56733 17.9866 6.05414 17.3315 4.13177 18.3158L4.5797 18.0865C4.10262 18.3307 3.87386 18.9397 4.07029 19.4459L6.46218 25.6097C6.84136 26.5868 7.80979 27.9688 8.61228 28.663C8.61228 28.663 13.4241 32.6298 13.4241 34.1171V36H21.2199L23.1688 32.1176L25.1178 36H27.0667V34.1171C27.0667 32.6298 30.0074 27.9454 30.0074 27.9454C30.5487 27.0349 30.9999 25.4307 30.9999 24.3657V16.5335C30.9646 14.7994 29.4847 13.3941 27.6587 13.3941C26.7451 13.3941 26.0052 14.0968 26.0052 14.9643V15.5916C26.0052 13.8575 24.5253 12.4522 22.6992 12.4522C21.7857 12.4522 21.0457 13.1549 21.0457 14.0224V14.6497C21.0457 12.9156 19.5658 11.5103 17.7397 11.5103C16.8262 11.5103 16.0863 12.2129 16.0863 13.0804V13.7078C16.0863 13.4291 16.0564 13.2075 15.9986 13.032L15.4942 4.94353C15.426 3.84977 14.5005 3 13.4241 3C12.3402 3 11.4752 3.86893 11.4752 4.9408V12.7059V22.4118ZM25.153 20.4706H27.102V28.2353H25.153V20.4706ZM21.2551 20.4706H23.2041V28.2353H21.2551V20.4706ZM17.3573 20.4706H19.3062V28.2353H17.3573V20.4706Z"/>
</mask>
<path fill-rule="evenodd" clip-rule="evenodd" d="M11.4752 22.4118L9.7472 19.7821C8.56733 17.9866 6.05414 17.3315 4.13177 18.3158L4.5797 18.0865C4.10262 18.3307 3.87386 18.9397 4.07029 19.4459L6.46218 25.6097C6.84136 26.5868 7.80979 27.9688 8.61228 28.663C8.61228 28.663 13.4241 32.6298 13.4241 34.1171V36H21.2199L23.1688 32.1176L25.1178 36H27.0667V34.1171C27.0667 32.6298 30.0074 27.9454 30.0074 27.9454C30.5487 27.0349 30.9999 25.4307 30.9999 24.3657V16.5335C30.9646 14.7994 29.4847 13.3941 27.6587 13.3941C26.7451 13.3941 26.0052 14.0968 26.0052 14.9643V15.5916C26.0052 13.8575 24.5253 12.4522 22.6992 12.4522C21.7857 12.4522 21.0457 13.1549 21.0457 14.0224V14.6497C21.0457 12.9156 19.5658 11.5103 17.7397 11.5103C16.8262 11.5103 16.0863 12.2129 16.0863 13.0804V13.7078C16.0863 13.4291 16.0564 13.2075 15.9986 13.032L15.4942 4.94353C15.426 3.84977 14.5005 3 13.4241 3C12.3402 3 11.4752 3.86893 11.4752 4.9408V12.7059V22.4118ZM25.153 20.4706H27.102V28.2353H25.153V20.4706ZM21.2551 20.4706H23.2041V28.2353H21.2551V20.4706ZM17.3573 20.4706H19.3062V28.2353H17.3573V20.4706Z" fill="white"/>
<path d="M11.4752 22.4118L10.6394 22.9609L12.4752 25.7546V22.4118H11.4752ZM9.7472 19.7821L10.5829 19.233L9.7472 19.7821ZM4.07029 19.4459L3.13802 19.8077H3.13802L4.07029 19.4459ZM6.46218 25.6097L7.39444 25.2479H7.39444L6.46218 25.6097ZM8.61228 28.663L7.95804 29.4193L7.96701 29.427L7.97617 29.4346L8.61228 28.663ZM13.4241 36H12.4241V37H13.4241V36ZM21.2199 36V37H21.8368L22.1136 36.4486L21.2199 36ZM23.1688 32.1176L24.0625 31.669L23.1688 29.8887L22.2751 31.669L23.1688 32.1176ZM25.1178 36L24.2241 36.4486L24.5009 37H25.1178V36ZM27.0667 36V37H28.0667V36H27.0667ZM30.0074 27.9454L30.8543 28.4771L30.8608 28.4668L30.867 28.4564L30.0074 27.9454ZM30.9999 16.5335H31.9999V16.5233L31.9997 16.5132L30.9999 16.5335ZM15.9986 13.032L15.0005 13.0942L15.0085 13.2225L15.0487 13.3446L15.9986 13.032ZM15.4942 4.94353L14.4962 5.00577L15.4942 4.94353ZM11.4752 4.9408H10.4752H11.4752ZM27.102 20.4706H28.102V19.4706H27.102V20.4706ZM27.102 28.2353V29.2353H28.102V28.2353H27.102ZM25.153 28.2353H24.153V29.2353H25.153V28.2353ZM23.2041 20.4706H24.2041V19.4706H23.2041V20.4706ZM23.2041 28.2353V29.2353H24.2041V28.2353H23.2041ZM21.2551 28.2353H20.2551V29.2353H21.2551V28.2353ZM19.3062 20.4706H20.3062V19.4706H19.3062V20.4706ZM19.3062 28.2353V29.2353H20.3062V28.2353H19.3062ZM17.3573 28.2353H16.3573V29.2353H17.3573V28.2353ZM12.3109 21.8626L10.5829 19.233L8.91148 20.3313L10.6394 22.9609L12.3109 21.8626ZM10.5829 19.233C9.11993 17.0065 6.04828 16.211 3.676 17.4257L4.58755 19.2059C6.06 18.4519 8.01474 18.9666 8.91148 20.3313L10.5829 19.233ZM4.58754 19.2059L5.03547 18.9766L4.12393 17.1964L3.676 17.4257L4.58754 19.2059ZM4.12393 17.1964C3.18287 17.6782 2.75942 18.8321 3.13802 19.8077L5.00256 19.0842C5.00101 19.0802 4.9949 19.0561 5.00876 19.0191C5.0227 18.9819 5.04077 18.9738 5.03547 18.9765L4.12393 17.1964ZM3.13802 19.8077L5.52991 25.9715L7.39444 25.2479L5.00256 19.0842L3.13802 19.8077ZM5.52991 25.9715C5.96763 27.0994 7.03094 28.6173 7.95804 29.4193L9.26652 27.9067C8.58864 27.3203 7.71508 26.0742 7.39444 25.2479L5.52991 25.9715ZM8.61228 28.663C7.97617 29.4346 7.97612 29.4345 7.97609 29.4345C7.9761 29.4345 7.97608 29.4345 7.97611 29.4345C7.97616 29.4346 7.97629 29.4347 7.97649 29.4348C7.97688 29.4352 7.97757 29.4357 7.97853 29.4365C7.98047 29.4381 7.98353 29.4407 7.98769 29.4441C7.99601 29.451 8.00872 29.4616 8.02551 29.4756C8.0591 29.5036 8.10903 29.5455 8.17295 29.5996C8.30084 29.7078 8.48449 29.8649 8.70523 30.0583C9.14774 30.4459 9.73459 30.9751 10.3186 31.5469C10.9071 32.123 11.4718 32.7219 11.8824 33.2507C12.0882 33.5158 12.2378 33.7411 12.3318 33.9203C12.4363 34.1195 12.4241 34.172 12.4241 34.1171H14.4241C14.4241 33.6904 14.2615 33.2936 14.1029 32.9912C13.9337 32.6688 13.7075 32.3402 13.4621 32.0242C12.9705 31.3909 12.3322 30.7192 11.7177 30.1177C11.0988 29.5119 10.4827 28.9565 10.023 28.5538C9.79266 28.352 9.60038 28.1875 9.46512 28.0731C9.39747 28.0158 9.34402 27.971 9.30712 27.9402C9.28867 27.9248 9.27436 27.9129 9.26447 27.9047C9.25953 27.9006 9.25569 27.8974 9.253 27.8952C9.25165 27.8941 9.25059 27.8932 9.24982 27.8925C9.24943 27.8922 9.24912 27.892 9.24888 27.8918C9.24876 27.8917 9.24864 27.8916 9.24858 27.8915C9.24847 27.8914 9.24838 27.8914 8.61228 28.663ZM12.4241 34.1171V36H14.4241V34.1171H12.4241ZM13.4241 37H21.2199V35H13.4241V37ZM22.1136 36.4486L24.0625 32.5663L22.2751 31.669L20.3262 35.5514L22.1136 36.4486ZM22.2751 32.5663L24.2241 36.4486L26.0115 35.5514L24.0625 31.669L22.2751 32.5663ZM25.1178 37H27.0667V35H25.1178V37ZM28.0667 36V34.1171H26.0667V36H28.0667ZM28.0667 34.1171C28.0667 33.9735 28.1665 33.575 28.4465 32.9167C28.7046 32.3097 29.0555 31.6158 29.4163 30.9499C29.7754 30.2871 30.1357 29.6675 30.4068 29.2127C30.5422 28.9857 30.6548 28.8006 30.7333 28.6728C30.7725 28.6089 30.8031 28.5593 30.8238 28.5261C30.8341 28.5094 30.842 28.4969 30.8471 28.4886C30.8497 28.4845 30.8516 28.4815 30.8528 28.4795C30.8534 28.4786 30.8538 28.4779 30.8541 28.4775C30.8542 28.4773 30.8543 28.4771 30.8543 28.4771C30.8544 28.477 30.8544 28.4771 30.8544 28.477C30.8544 28.4771 30.8543 28.4771 30.0074 27.9454C29.1604 27.4138 29.1604 27.4138 29.1603 27.4139C29.1603 27.414 29.1602 27.4141 29.1601 27.4142C29.16 27.4144 29.1598 27.4147 29.1596 27.4151C29.1591 27.4158 29.1585 27.4168 29.1577 27.4181C29.1561 27.4207 29.1538 27.4244 29.1508 27.4292C29.1448 27.4388 29.1361 27.4527 29.1249 27.4707C29.1025 27.5068 29.07 27.5594 29.0288 27.6265C28.9464 27.7606 28.8293 27.9531 28.689 28.1885C28.4088 28.6585 28.0339 29.303 27.6578 29.9972C27.2834 30.6883 26.8992 31.4443 26.606 32.134C26.3345 32.7723 26.0667 33.5171 26.0667 34.1171H28.0667ZM30.867 28.4564C31.1968 27.9015 31.4745 27.1835 31.67 26.4818C31.8652 25.7807 31.9999 25.0187 31.9999 24.3657H29.9999C29.9999 24.7778 29.909 25.3504 29.7433 25.9452C29.5778 26.5394 29.3592 27.0788 29.1478 27.4344L30.867 28.4564ZM31.9999 24.3657V16.5335H29.9999V24.3657H31.9999ZM31.9997 16.5132C31.9526 14.1991 29.9926 12.3941 27.6587 12.3941V14.3941C28.9768 14.3941 29.9766 15.3997 30.0001 16.5538L31.9997 16.5132ZM27.6587 12.3941C26.2422 12.3941 25.0052 13.4964 25.0052 14.9643H27.0052C27.0052 14.6971 27.2481 14.3941 27.6587 14.3941V12.3941ZM25.0052 14.9643V15.5916H27.0052V14.9643H25.0052ZM27.0052 15.5916C27.0052 13.2572 25.0282 11.4522 22.6992 11.4522V13.4522C24.0223 13.4522 25.0052 14.4579 25.0052 15.5916H27.0052ZM22.6992 11.4522C21.2827 11.4522 20.0457 12.5545 20.0457 14.0224H22.0457C22.0457 13.7552 22.2886 13.4522 22.6992 13.4522V11.4522ZM20.0457 14.0224V14.6497H22.0457V14.0224H20.0457ZM22.0457 14.6497C22.0457 12.3152 20.0688 10.5103 17.7397 10.5103V12.5103C19.0629 12.5103 20.0457 13.516 20.0457 14.6497H22.0457ZM17.7397 10.5103C16.3233 10.5103 15.0863 11.6126 15.0863 13.0804H17.0863C17.0863 12.8133 17.3292 12.5103 17.7397 12.5103V10.5103ZM15.0863 13.0804V13.7078H17.0863V13.0804H15.0863ZM17.0863 13.7078C17.0863 13.365 17.0505 13.0293 16.9485 12.7194L15.0487 13.3446C15.0623 13.3858 15.0863 13.4931 15.0863 13.7078H17.0863ZM16.9966 12.9697L16.4923 4.8813L14.4962 5.00577L15.0005 13.0942L16.9966 12.9697ZM16.4923 4.8813C16.3908 3.2535 15.0216 2 13.4241 2V4C13.9793 4 14.4613 4.44604 14.4962 5.00577L16.4923 4.8813ZM13.4241 2C11.7894 2 10.4752 3.31521 10.4752 4.9408H12.4752C12.4752 4.42265 12.8911 4 13.4241 4V2ZM10.4752 4.9408V12.7059H12.4752V4.9408H10.4752ZM10.4752 12.7059V22.4118H12.4752V12.7059H10.4752ZM25.153 21.4706H27.102V19.4706H25.153V21.4706ZM26.102 20.4706V28.2353H28.102V20.4706H26.102ZM27.102 27.2353H25.153V29.2353H27.102V27.2353ZM26.153 28.2353V20.4706H24.153V28.2353H26.153ZM21.2551 21.4706H23.2041V19.4706H21.2551V21.4706ZM22.2041 20.4706V28.2353H24.2041V20.4706H22.2041ZM23.2041 27.2353H21.2551V29.2353H23.2041V27.2353ZM22.2551 28.2353V20.4706H20.2551V28.2353H22.2551ZM17.3573 21.4706H19.3062V19.4706H17.3573V21.4706ZM18.3062 20.4706V28.2353H20.3062V20.4706H18.3062ZM19.3062 27.2353H17.3573V29.2353H19.3062V27.2353ZM18.3573 28.2353V20.4706H16.3573V28.2353H18.3573Z" fill="black" fill-opacity="0.8" mask="url(#path-1-outside-1_51_278)"/>
</g>
<defs>
<filter id="filter0_d_51_278" x="0" y="0" width="34.9999" height="41" filterUnits="userSpaceOnUse" color-interpolation-filters="sRGB">
<feFlood flood-opacity="0" result="BackgroundImageFix"/>
<feColorMatrix in="SourceAlpha" type="matrix" values="0 0 0 0 0 0 0 0 0 0 0 0 0 0 0 0 0 0 127 0" result="hardAlpha"/>
<feOffset dy="1"/>
<feGaussianBlur stdDeviation="1.5"/>
<feColorMatrix type="matrix" values="0 0 0 0 0 0 0 0 0 0 0 0 0 0 0 0 0 0 0.2 0"/>
<feBlend mode="normal" in2="BackgroundImageFix" result="effect1_dropShadow_51_278"/>
<feBlend mode="normal" in="SourceGraphic" in2="effect1_dropShadow_51_278" result="shape"/>
</filter>
</defs>
</svg>
