<svg width="165" height="165" viewBox="0 0 165 165" fill="none" xmlns="http://www.w3.org/2000/svg">
<circle opacity="0.1" cx="82.5" cy="82.5" r="82" stroke="#2EECC5"/>
<path d="M13 83C13 44.3401 44.3401 13 83 13C121.66 13 153 44.3401 153 83C153 121.66 121.66 153 83 153C44.3401 153 13 121.66 13 83Z" fill="url(#paint0_radial_66_2429)"/>
<path d="M71.032 94.9369L69.9524 111.426C71.5387 111.426 72.2396 110.687 73.125 109.809L80.7464 102.254L96.6022 114.196C99.5202 115.838 101.626 114.988 102.353 111.434L112.762 61.4296C113.827 57.0738 111.133 55.0983 108.342 56.3903L47.2217 80.4168C43.0497 82.1228 43.074 84.4956 46.4612 85.553L62.146 90.5438L98.4579 67.1889C100.172 66.1292 101.745 66.6989 100.454 67.8673L71.0311 94.9362L71.032 94.9369Z" fill="#161617"/>
<defs>
<radialGradient id="paint0_radial_66_2429" cx="0" cy="0" r="1" gradientUnits="userSpaceOnUse" gradientTransform="translate(82 84) rotate(89.4744) scale(109.005)">
<stop stop-color="#2EECC5"/>
<stop offset="1" stop-color="#00644F"/>
</radialGradient>
</defs>
</svg>
