<svg width="128" height="128" viewBox="0 0 128 128" fill="none" xmlns="http://www.w3.org/2000/svg">
<path d="M14 60C14 32.3858 36.3858 10 64 10C91.6142 10 114 32.3858 114 60C114 87.6142 91.6142 110 64 110C36.3858 110 14 87.6142 14 60Z" fill="white"/>
<path fill-rule="evenodd" clip-rule="evenodd" d="M61.6104 38.139C62.0749 38.1383 62.5746 38.1385 63.1138 38.1387L64.0026 38.139C71.1227 38.139 71.9666 38.1645 74.7783 38.2923C77.3783 38.4112 78.7895 38.8457 79.7295 39.2107C80.9739 39.694 81.8612 40.2718 82.7939 41.2051C83.7273 42.1385 84.3051 43.0274 84.7895 44.2718C85.1545 45.2107 85.5895 46.6219 85.7079 49.2219C85.8356 52.033 85.8634 52.8775 85.8634 59.9942C85.8634 67.111 85.8356 67.9554 85.7079 70.7666C85.589 73.3666 85.1545 74.7777 84.7895 75.7166C84.3062 76.9611 83.7273 77.8472 82.7939 78.78C81.8606 79.7133 80.9745 80.2911 79.7295 80.7744C78.7906 81.1411 77.3783 81.5744 74.7783 81.6933C71.9672 81.8211 71.1227 81.8489 64.0026 81.8489C56.882 81.8489 56.0381 81.8211 53.227 81.6933C50.6269 81.5733 49.2158 81.1389 48.2752 80.7739C47.0308 80.2905 46.1419 79.7128 45.2086 78.7794C44.2752 77.8461 43.6974 76.9594 43.213 75.7144C42.848 74.7755 42.413 73.3644 42.2946 70.7643C42.1669 67.9532 42.1413 67.1087 42.1413 59.9876C42.1413 52.8664 42.1669 52.0264 42.2946 49.2152C42.4135 46.6152 42.848 45.2041 43.213 44.2641C43.6963 43.0196 44.2752 42.1307 45.2086 41.1974C46.1419 40.264 47.0308 39.6862 48.2752 39.2018C49.2153 38.8351 50.6269 38.4018 53.227 38.2823C55.687 38.1712 56.6403 38.1379 61.6104 38.1323V38.139ZM78.2368 42.5666C76.4702 42.5666 75.0368 43.9983 75.0368 45.7655C75.0368 47.5322 76.4702 48.9656 78.2368 48.9656C80.0035 48.9656 81.4369 47.5322 81.4369 45.7655C81.4369 43.9989 80.0035 42.5655 78.2368 42.5655V42.5666ZM50.3086 60.0003C50.3086 52.4375 56.4403 46.3057 64.0032 46.3057H64.0026C71.5655 46.3057 77.6956 52.4375 77.6956 60.0003C77.6956 67.5632 71.5661 73.6921 64.0032 73.6921C56.4403 73.6921 50.3086 67.5632 50.3086 60.0003Z" fill="white"/>
<path d="M64.0023 51.1113C68.9112 51.1113 72.8912 55.0908 72.8912 60.0003C72.8912 64.9092 68.9112 68.8893 64.0023 68.8893C59.0928 68.8893 55.1133 64.9092 55.1133 60.0003C55.1133 55.0908 59.0928 51.1113 64.0023 51.1113Z" fill="white"/>
<g opacity="0.1" filter="url(#filter0_d_66_2430)">
<circle cx="64" cy="60" r="59.5" stroke="white" shape-rendering="crispEdges"/>
</g>
<path d="M86.8912 49.2687C86.3398 51.2301 85.5966 52.9374 84.6654 54.4876L84.7042 54.4183C83.7894 56.1433 82.6969 58.1363 81.4268 60.3973C80.3377 62.1824 79.7612 63.1065 79.6972 63.1696C79.4154 63.5693 79.2194 64.0591 79.152 64.5974L79.1499 64.6136C79.2051 65.1033 79.4052 65.5307 79.6972 65.8496L80.514 66.8799C84.8839 71.961 87.3418 75.4634 87.8877 77.3871C87.9592 77.5996 88 77.8445 88 78.101C88 78.5491 87.8734 78.9627 87.659 79.3023L87.6631 79.2954C87.3037 79.7135 86.8013 79.9723 86.2459 79.9723C86.1847 79.9723 86.1213 79.97 86.0621 79.963H86.0703H80.6978C80.6957 79.963 80.6917 79.963 80.6876 79.963C79.9994 79.963 79.3664 79.6904 78.8702 79.2376L78.8763 79.2422C78.1534 78.5699 77.5102 77.8422 76.9344 77.0521L76.916 77.0244C75.9753 75.8215 75.1408 74.8088 74.4125 73.9863C71.9866 71.3773 70.1964 70.0727 69.042 70.0727C68.9991 70.0681 68.9501 70.0658 68.8991 70.0658C68.5621 70.0658 68.2477 70.1836 67.9883 70.3846L67.9945 70.38C67.7821 70.6803 67.6534 71.0685 67.6534 71.4866C67.6534 71.5698 67.6575 71.6483 67.6677 71.7292V71.72C67.6126 72.4454 67.5799 73.2886 67.5799 74.1411C67.5799 74.4161 67.584 74.6887 67.5901 74.9613V74.922V77.5996C67.6106 77.7082 67.6228 77.833 67.6228 77.96C67.6228 78.5191 67.3982 79.0181 67.047 79.3485L67.0449 79.3508C66.2547 79.7597 65.3317 80 64.3576 80C64.1494 80 63.9452 79.9884 63.743 79.9677L63.7695 79.97C60.5554 79.9007 57.5741 78.8356 55.04 77.0405L55.1114 77.0867C52.026 74.9659 49.4694 72.2051 47.5213 68.943L47.4662 68.846C45.6161 66.069 43.8906 62.9317 42.4204 59.6234L42.2774 59.2676C41.4177 57.4147 40.5274 55.1368 39.7596 52.7942L39.6371 52.3668C39.3247 51.3133 39.098 50.0888 39.0041 48.8205L39 48.7627C39 47.5953 39.6072 47.0116 40.8215 47.0116H46.1919C46.241 47.0069 46.2981 47.0046 46.3574 47.0046C46.8638 47.0046 47.3314 47.201 47.701 47.5314L47.6969 47.5267C48.1053 48.0327 48.4075 48.6542 48.5566 49.3472L48.5627 49.375C49.5511 52.5331 50.5986 55.1853 51.8034 57.7266L51.6666 57.4101C52.6508 59.6511 53.7392 61.5802 54.9807 63.3614L54.9338 63.2898C56.0229 64.8022 56.8723 65.5585 57.4822 65.5585C57.5006 65.5608 57.523 65.5608 57.5476 65.5608C57.8498 65.5608 58.1132 65.3759 58.2561 65.0987L58.2582 65.0941C58.4093 64.6551 58.4971 64.1446 58.4971 63.6132C58.4971 63.5 58.493 63.3868 58.4848 63.2759V63.2898V54.3282C58.4419 53.2724 58.2132 52.2859 57.8314 51.4011L57.8477 51.445C57.5945 50.8351 57.2903 50.3083 56.9288 49.8393L56.9349 49.8486C56.6001 49.4697 56.3714 48.973 56.2999 48.4185L56.2978 48.4046C56.2978 48.0119 56.4571 47.6584 56.7062 47.4274L56.7083 47.4251C56.9554 47.1687 57.2862 47.0139 57.6476 47.0139H57.6639H66.1301C66.175 47.0069 66.2261 47.0046 66.2792 47.0046C66.6774 47.0046 67.0347 47.2079 67.2716 47.5267L67.2736 47.5291C67.484 47.9634 67.6085 48.4832 67.6085 49.033C67.6085 49.1208 67.6044 49.2063 67.5983 49.2918V49.2802V61.2313C67.5942 61.2868 67.5922 61.3514 67.5922 61.4161C67.5922 61.8412 67.6963 62.2409 67.876 62.5805L67.8719 62.5713C68.021 62.8208 68.2701 62.9825 68.5519 62.9825H68.554C68.9134 62.9548 69.2401 62.8208 69.5158 62.6082L69.5096 62.6129C70.0651 62.1808 70.5429 61.6887 70.9574 61.132L70.9656 61.1204C72.2051 59.5356 73.3486 57.7844 74.3451 55.9223L74.4247 55.7606C75.1272 54.4437 75.8868 52.8219 76.575 51.1562L76.7016 50.8166L77.6123 48.7558C77.9288 47.7254 78.7783 47 79.7768 47C79.8156 47 79.8544 47 79.8932 47.0023H79.8871H85.2596C86.7108 47.0023 87.2553 47.7578 86.8932 49.2687H86.8912Z" fill="#161617"/>
<defs>
<filter id="filter0_d_66_2430" x="0" y="0" width="128" height="128" filterUnits="userSpaceOnUse" color-interpolation-filters="sRGB">
<feFlood flood-opacity="0" result="BackgroundImageFix"/>
<feColorMatrix in="SourceAlpha" type="matrix" values="0 0 0 0 0 0 0 0 0 0 0 0 0 0 0 0 0 0 127 0" result="hardAlpha"/>
<feOffset dy="4"/>
<feGaussianBlur stdDeviation="2"/>
<feComposite in2="hardAlpha" operator="out"/>
<feColorMatrix type="matrix" values="0 0 0 0 0 0 0 0 0 0 0 0 0 0 0 0 0 0 0.25 0"/>
<feBlend mode="normal" in2="BackgroundImageFix" result="effect1_dropShadow_66_2430"/>
<feBlend mode="normal" in="SourceGraphic" in2="effect1_dropShadow_66_2430" result="shape"/>
</filter>
</defs>
</svg>
